Coordinates
version=1
nRows=23
nColumns=28
inDegrees=yes

Units are S.I. units (second, meters, Newtons, ...)
Angles are in degrees.

endheader
time	pelvis_tilt	pelvis_list	pelvis_rotation	pelvis_tx	pelvis_ty	pelvis_tz	hip_flexion_r	hip_adduction_r	hip_rotation_r	knee_angle_r	ankle_angle_r	subtalar_angle_r	mtp_angle_r	hip_flexion_l	hip_adduction_l	hip_rotation_l	knee_angle_l	socket_flexion	socket_adduction	socket_rotation	socket_tx	socket_ty	socket_tz	foot_flex	lumbar_extension	lumbar_bending	lumbar_rotation
      0.65416667	      0.60493966	     -2.97419840	      3.33122038	     -0.04258665	      0.98162154	      0.27051333	     24.64068377	      7.48288719	      2.95517124	     -5.66425513	     16.10707068	    -25.79271811	    -10.03534176	    -20.28838396	     -2.55546347	     -4.91112913	     -1.80587962	      0.93160868	      2.81767215	     22.91765284	      0.02049936	      0.00213950	      0.00837375	     10.21357967	    -11.61792433	      1.56975734	      1.36728801
      0.65833333	      0.68733973	     -3.05393067	      3.38362001	     -0.03683883	      0.98070687	      0.27026083	     24.81713827	      7.69253127	      2.91199397	     -6.50226472	     16.01156993	    -25.95122702	     -9.90050631	    -20.65480426	     -2.72504305	     -4.99516204	     -1.89948541	      1.00733972	      2.89661975	     22.89138391	      0.02027750	      0.00235678	      0.00765823	     10.28715257	    -11.70843769	      1.76267469	      1.11769653
      0.66250000	      0.70619927	     -3.12673550	      3.55941017	     -0.03114099	      0.97987336	      0.26962697	     24.89557872	      7.82479907	      3.14432096	     -7.04485352	     15.87924340	    -25.93029680	     -9.84357439	    -20.83507408	     -2.79448269	     -4.85591842	     -2.04031140	      1.17359063	      2.86901663	     22.91831181	      0.02111549	      0.00257536	      0.00800253	     10.32371174	    -11.75278214	      2.00172706	      1.07483620
      0.66666667	      0.79099027	     -3.22466496	      3.59754650	     -0.02541985	      0.97900263	      0.26939556	     25.10381530	      8.05524882	      3.10707253	     -7.98483042	     15.60288860	    -26.08212538	     -9.63221041	    -21.17546147	     -2.96906005	     -4.94841581	     -2.15334067	      1.26747891	      2.95991398	     22.90065128	      0.02104509	      0.00282155	      0.00739729	     10.39196179	    -11.85426024	      2.22518646	      0.86993958
      0.67083333	      0.81230372	     -3.30672716	      3.77537379	     -0.01967602	      0.97821903	      0.26871021	     25.17342506	      8.18746833	      3.35337041	     -8.54485517	     15.43417596	    -26.06186494	     -9.56131340	    -21.34073488	     -3.04405996	     -4.80856662	     -2.31672900	      1.46570243	      2.91527004	     22.91831181	      0.02188615	      0.00302628	      0.00775809	     10.39933096	    -11.89537821	      2.48165491	      0.84704395
      0.67500000	      0.91026179	     -3.42617327	      3.78626285	     -0.01391420	      0.97738377	      0.26854413	     25.40131624	      8.44866323	      3.27082281	     -9.57663823	     15.00247692	    -26.26206729	     -9.26989935	    -21.66629152	     -3.24259304	     -4.95507910	     -2.45334644	      1.57461232	      3.02877476	     22.91831181	      0.02196386	      0.00323044	      0.00700491	     10.43078148	    -12.01570610	      2.72875312	      0.65762705
      0.67916667	      0.93809320	     -3.53028732	      3.95079422	     -0.00812638	      0.97668184	      0.26789265	     25.47040649	      8.60755101	      3.51441384	    -10.17735282	     14.79155791	    -26.25686719	     -9.17140604	    -21.81462389	     -3.32059136	     -4.80741662	     -2.63492550	      1.79219462	      2.98659806	     22.91831181	      0.02293853	      0.00345748	      0.00754763	     10.41270921	    -12.06532088	      3.00722776	      0.63911061
      0.68333333	      1.04946227	     -3.66825591	      3.95047877	     -0.00232063	      0.97592770	      0.26772578	     25.69595852	      8.87902095	      3.36925787	    -11.24278187	     14.22628172	    -26.51831262	     -8.80963708	    -22.10499938	     -3.54696433	     -5.01027207	     -2.81384557	      1.93673444	      3.11628019	     22.91831181	      0.02322858	      0.00368984	      0.00659422	     10.39205327	    -12.19548383	      3.26992559	      0.46158513
      0.68750000	      1.12898742	     -3.84555696	      4.02515098	      0.00353056	      0.97521798	      0.26732654	     25.85441179	      9.14396246	      3.35135116	    -12.11274208	     13.65136528	    -26.76533970	     -8.27088833	    -22.32740961	     -3.78043614	     -5.08080593	     -3.00167178	      2.12721297	      3.19308228	     22.91831181	      0.02377214	      0.00384045	      0.00611518	     10.33147389	    -12.29292801	      3.61399088	      0.34403344
      0.69166667	      1.15843521	     -3.95576066	      4.18446447	      0.00941196	      0.97470669	      0.26667106	     25.88797291	      9.29684168	      3.60504494	    -12.69239775	     13.42529776	    -26.77305801	     -8.14476690	    -22.44023383	     -3.84718901	     -4.91028600	     -3.21873866	      2.38775860	      3.14469321	     22.91831181	      0.02483063	      0.00415208	      0.00683134	     10.26807063	    -12.32861332	      3.90855402	      0.34287784
      0.69583333	      1.28406872	     -4.10198764	      4.18474537	      0.01526512	      0.97411413	      0.26651548	     26.08120750	      9.55531529	      3.41002596	    -13.74671799	     12.74089147	    -27.11287713	     -7.68721254	    -22.63284205	     -4.07859369	     -5.15673528	     -3.47999189	      2.60753472	      3.29346014	     22.91831181	      0.02576417	      0.00442219	      0.00577175	     10.15124334	    -12.47456444	      4.18285060	      0.19087615
      0.70000000	      1.31823062	     -4.83163609	      4.56338998	      0.02164327	      0.97339986	      0.26569000	     25.92226711	     10.23230320	      3.36518719	    -13.70989756	      9.74070474	    -29.45972305	     -1.30130821	    -22.78413948	     -5.21550655	     -5.05140406	     -3.49811153	      2.85883395	      3.70595173	     22.91831181	      0.02594311	      0.00393928	      0.00283534	      9.87631842	    -12.37032447	      5.24902179	     -0.18164725
      0.70416667	      1.46638892	     -4.72470919	      4.47930921	      0.02727376	      0.97311199	      0.26561858	     26.07846173	     10.26850324	      3.45530201	    -14.83708847	      9.43257546	    -29.46994086	     -1.08950699	    -22.89670154	     -5.00823975	     -5.21278086	     -3.83499802	      3.22817825	      3.70306877	     22.91831181	      0.02782839	      0.00469780	      0.00315744	      9.88592224	    -12.61999068	      5.21624109	     -0.19946105
      0.70833333	      1.56175795	     -4.77364860	      4.48917293	      0.03317415	      0.97286404	      0.26523727	     26.17663655	     10.39099378	      3.47521022	    -15.72601469	      9.12151797	    -29.48191870	     -0.88039113	    -22.96008625	     -4.96177798	     -5.27852621	     -4.15181418	      3.59112987	      3.67146614	     22.91831181	      0.02964488	      0.00526059	      0.00371895	      9.66314954	    -12.74678301	      5.39694406	     -0.19176919
      0.71250000	      1.62578519	     -4.88208201	      4.57718088	      0.03912070	      0.97264628	      0.26474068	     26.20205512	     10.54805711	      3.64215725	    -16.42690354	      8.91197397	    -29.46371077	     -0.80896847	    -23.00649235	     -4.99394186	     -5.18587559	     -4.46535123	      3.94155544	      3.64273469	     22.91831181	      0.03102145	      0.00565140	      0.00454636	      9.48998028	    -12.82017078	      5.66826630	     -0.18501043
      0.71666667	      1.76804370	     -4.98230649	      4.53560689	      0.04504486	      0.97249502	      0.26461034	     26.31880745	     10.72892350	      3.40945859	    -17.42391692	      8.47932486	    -29.57312699	     -0.63060288	    -22.98417090	     -5.12012892	     -5.44834155	     -4.89783022	      4.32795504	      3.77431800	     22.91831181	      0.03335585	      0.00638764	      0.00365317	      9.19959722	    -12.99288704	      5.87637182	     -0.25106056
      0.72083333	      1.86031672	     -5.12908106	      4.59040804	      0.05104964	      0.97234992	      0.26424663	     26.38501801	     10.91011789	      3.30223645	    -18.25115700	      8.09652453	    -29.66212376	     -0.38265525	    -22.93299864	     -5.28355375	     -5.55407916	     -5.30810691	      4.73055735	      3.86408249	     22.91831181	      0.03531739	      0.00692564	      0.00330850	      8.92970652	    -13.08644634	      6.16460109	     -0.30231144
      0.72500000	      1.74277293	     -5.54779607	      4.90927051	      0.05733668	      0.97191816	      0.26353566	     26.60706419	     11.20017239	      2.81810724	    -18.81285624	      6.95893300	    -30.27756485	      1.85005562	    -22.58221566	     -5.95499811	     -5.35127790	     -5.60696326	      5.22109274	      4.18236661	     22.91831181	      0.03744572	      0.00715330	      0.00132162	      8.57343932	    -12.83112855	      6.82846709	     -0.64695809
      0.72916667	      1.86135215	     -5.64634270	      4.89828403	      0.06329484	      0.97199240	      0.26335532	     26.55272818	     11.39156518	      3.01620295	    -19.52184727	      6.81195831	    -30.26509057	      1.91575685	    -22.52989220	     -5.96930362	     -5.37553849	     -6.05927266	      5.67534445	      4.21038263	     22.87283753	      0.03956326	      0.00784370	      0.00193854	      8.32483264	    -12.98060137	      7.05517952	     -0.65397901
      0.73333333	      2.04452698	     -5.70228732	      4.83222844	      0.06923714	      0.97219551	      0.26337669	     26.51111843	     11.53881220	      2.92373690	    -20.37261289	      6.52021545	    -30.33719068	      2.07929470	    -22.37602629	     -6.08893459	     -5.69812624	     -6.62335649	      6.16600935	      4.39954906	     22.91831181	      0.04258263	      0.00905803	      0.00067759	      7.94408820	    -13.20200127	      7.17344671	     -0.68255563
      0.73750000	      2.14685394	     -5.84777156	      4.82500174	      0.07531813	      0.97237712	      0.26308102	     26.42811269	     11.75236819	      3.03940816	    -21.00388067	      6.36702177	    -30.32482768	      2.14700168	    -22.25589204	     -6.14502314	     -5.69216200	     -7.11148368	      6.65068446	      4.43795110	     22.84495235	      0.04483972	      0.00984789	      0.00127738	      7.59827841	    -13.30016154	      7.46580324	     -0.67133863
      0.74166667	      2.28800783	     -5.96182281	      4.85625858	      0.08131161	      0.97262088	      0.26310208	     26.37069186	     11.90316459	      2.82026095	    -21.72064529	      6.04369812	    -30.38464407	      2.36067650	    -21.90780819	     -6.46681412	     -5.97393759	     -7.77216224	      7.19198285	      4.73732947	     22.91831181	      0.04826755	      0.01126735	     -0.00097127	      7.17118648	    -13.43757905	      7.63478582	     -0.69754252
      0.74583333	      2.37837732	     -6.13141041	      4.84266125	      0.08744284	      0.97287545	      0.26282364	     26.25931652	     12.14312503	      2.95188238	    -22.29816955	      5.92763437	    -30.36101417	      2.43192029	    -21.73180148	     -6.53789278	     -5.95282151	     -8.29937673	      7.71426569	      4.77172041	     22.78095795	      0.05059119	      0.01213912	     -0.00016941	      6.79983147	    -13.50623624	      7.95908585	     -0.69412938
